<svg width="271" height="258" viewBox="0 0 271 258" fill="none" xmlns="http://www.w3.org/2000/svg">
<path d="M95.7521 89.0107C95.6267 87.6304 95.0683 86.5576 94.0771 85.7923C93.0984 85.0143 91.6993 84.6254 89.88 84.6254C88.6754 84.6254 87.6716 84.7822 86.8686 85.0959C86.0656 85.4096 85.4633 85.8424 85.0618 86.3945C84.6603 86.9341 84.4532 87.5552 84.4407 88.2578C84.4156 88.835 84.5285 89.3432 84.7795 89.7823C85.043 90.2215 85.4194 90.6104 85.9087 90.9492C86.4106 91.2754 87.0129 91.564 87.7156 91.815C88.4182 92.0659 89.2087 92.2855 90.087 92.4737L93.3995 93.2266C95.3067 93.6406 96.988 94.1927 98.4435 94.8828C99.9116 95.5729 101.141 96.3948 102.132 97.3484C103.136 98.302 103.895 99.3999 104.41 100.642C104.924 101.884 105.188 103.277 105.2 104.82C105.188 107.254 104.573 109.344 103.356 111.088C102.139 112.832 100.388 114.168 98.1048 115.097C95.8337 116.025 93.0921 116.489 89.88 116.489C86.6553 116.489 83.8447 116.006 81.4482 115.04C79.0516 114.074 77.1883 112.606 75.8583 110.636C74.5283 108.666 73.8445 106.175 73.8068 103.164H82.728C82.8033 104.406 83.1358 105.441 83.7255 106.27C84.3152 107.098 85.1245 107.725 86.1534 108.152C87.1948 108.578 88.3994 108.792 89.767 108.792C91.0218 108.792 92.0883 108.622 92.9666 108.283C93.8575 107.945 94.5413 107.474 95.0181 106.872C95.4949 106.27 95.7396 105.579 95.7521 104.801C95.7396 104.074 95.5137 103.453 95.0746 102.938C94.6354 102.411 93.9579 101.96 93.0419 101.583C92.1385 101.194 90.9841 100.837 89.5788 100.51L85.5511 99.5692C82.2135 98.8039 79.5849 97.5679 77.6651 95.8615C75.7454 94.1425 74.7918 91.8213 74.8043 88.8977C74.7918 86.5137 75.4317 84.4246 76.7241 82.6303C78.0165 80.8361 79.8045 79.437 82.0881 78.4332C84.3717 77.4294 86.9753 76.9276 89.8988 76.9276C92.8851 76.9276 95.4761 77.4357 97.6719 78.4521C99.8802 79.4558 101.593 80.8674 102.81 82.6868C104.027 84.5062 104.648 86.6141 104.673 89.0107H95.7521ZM109.906 116V77.4545H119.222V92.9254H134.411V77.4545H143.708V116H134.411V100.51H119.222V116H109.906ZM172.871 77.4545H182.169V102.317C182.169 105.19 181.485 107.694 180.117 109.827C178.75 111.947 176.843 113.591 174.396 114.758C171.949 115.912 169.107 116.489 165.87 116.489C162.595 116.489 159.734 115.912 157.287 114.758C154.841 113.591 152.94 111.947 151.585 109.827C150.23 107.694 149.552 105.19 149.552 102.317V77.4545H158.868V101.508C158.868 102.838 159.157 104.024 159.734 105.065C160.324 106.106 161.146 106.922 162.2 107.512C163.254 108.101 164.477 108.396 165.87 108.396C167.263 108.396 168.48 108.101 169.521 107.512C170.575 106.922 171.397 106.106 171.987 105.065C172.576 104.024 172.871 102.838 172.871 101.508V77.4545ZM197.324 77.4545V116H188.008V77.4545H197.324Z" fill="#3598DB"/>
<path d="M142.333 195.667L75.6667 235.667V195.667H49C38.3913 195.667 28.2172 191.452 20.7157 183.951C13.2143 176.449 9 166.275 9 155.667V49C9 38.3913 13.2143 28.2172 20.7157 20.7157C28.2172 13.2143 38.3913 9 49 9H209C219.609 9 229.783 13.2143 237.284 20.7157C244.786 28.2172 249 38.3913 249 49V109M262.333 249C262.333 241.928 259.524 235.145 254.523 230.144C249.522 225.143 242.739 222.333 235.667 222.333H209C201.928 222.333 195.145 225.143 190.144 230.144C185.143 235.145 182.333 241.928 182.333 249M195.667 182.333C195.667 189.406 198.476 196.189 203.477 201.189C208.478 206.19 215.261 209 222.333 209C229.406 209 236.189 206.19 241.189 201.189C246.19 196.189 249 189.406 249 182.333C249 175.261 246.19 168.478 241.189 163.477C236.189 158.476 229.406 155.667 222.333 155.667C215.261 155.667 208.478 158.476 203.477 163.477C198.476 168.478 195.667 175.261 195.667 182.333Z" stroke="#3598DB" stroke-width="17" stroke-linecap="round" stroke-linejoin="round"/>
</svg>
