<svg width="279" height="266" viewBox="0 0 279 266" fill="none" xmlns="http://www.w3.org/2000/svg">
<path d="M146.333 199.667L79.6667 239.667V199.667H53C42.3913 199.667 32.2172 195.452 24.7157 187.951C17.2143 180.449 13 170.275 13 159.667V53C13 42.3913 17.2143 32.2172 24.7157 24.7157C32.2172 17.2143 42.3913 13 53 13H213C223.609 13 233.783 17.2143 241.284 24.7157C248.786 32.2172 253 42.3913 253 53V113M266.333 253C266.333 245.928 263.524 239.145 258.523 234.144C253.522 229.143 246.739 226.333 239.667 226.333H213C205.928 226.333 199.145 229.143 194.144 234.144C189.143 239.145 186.333 245.928 186.333 253M199.667 186.333C199.667 193.406 202.476 200.189 207.477 205.189C212.478 210.19 219.261 213 226.333 213C233.406 213 240.189 210.19 245.189 205.189C250.19 200.189 253 193.406 253 186.333C253 179.261 250.19 172.478 245.189 167.477C240.189 162.476 233.406 159.667 226.333 159.667C219.261 159.667 212.478 162.476 207.477 167.477C202.476 172.478 199.667 179.261 199.667 186.333Z" stroke="black" stroke-width="25" stroke-linecap="round" stroke-linejoin="round"/>
<path d="M173.977 80.8666C175.521 79.3228 175.521 76.7499 173.977 75.2853L164.715 66.0228C163.25 64.4791 160.677 64.4791 159.133 66.0228L151.85 73.2666L166.694 88.1103M103.875 121.281V136.125H118.719L162.498 92.3061L147.654 77.4624L103.875 121.281Z" fill="black"/>
</svg>
