<svg width="580" height="537" viewBox="0 0 580 537" fill="none" xmlns="http://www.w3.org/2000/svg">
<path d="M105.252 89.0107C105.127 87.6304 104.568 86.5576 103.577 85.7923C102.598 85.0143 101.199 84.6254 99.38 84.6254C98.1754 84.6254 97.1716 84.7822 96.3686 85.0959C95.5656 85.4096 94.9633 85.8424 94.5618 86.3945C94.1603 86.9341 93.9532 87.5552 93.9407 88.2578C93.9156 88.835 94.0285 89.3432 94.2795 89.7823C94.543 90.2215 94.9194 90.6104 95.4087 90.9492C95.9106 91.2754 96.5129 91.564 97.2156 91.815C97.9182 92.0659 98.7087 92.2855 99.587 92.4737L102.9 93.2266C104.807 93.6406 106.488 94.1927 107.944 94.8828C109.412 95.5729 110.641 96.3948 111.632 97.3484C112.636 98.302 113.395 99.3999 113.91 100.642C114.424 101.884 114.688 103.277 114.7 104.82C114.688 107.254 114.073 109.344 112.856 111.088C111.639 112.832 109.888 114.168 107.605 115.097C105.334 116.025 102.592 116.489 99.38 116.489C96.1553 116.489 93.3447 116.006 90.9482 115.04C88.5516 114.074 86.6883 112.606 85.3583 110.636C84.0283 108.666 83.3445 106.175 83.3068 103.164H92.228C92.3033 104.406 92.6358 105.441 93.2255 106.27C93.8152 107.098 94.6245 107.725 95.6534 108.152C96.6948 108.578 97.8994 108.792 99.267 108.792C100.522 108.792 101.588 108.622 102.467 108.283C103.357 107.945 104.041 107.474 104.518 106.872C104.995 106.27 105.24 105.579 105.252 104.801C105.24 104.074 105.014 103.453 104.575 102.938C104.135 102.411 103.458 101.96 102.542 101.583C101.638 101.194 100.484 100.837 99.0788 100.51L95.0511 99.5692C91.7135 98.8039 89.0849 97.5679 87.1651 95.8615C85.2454 94.1425 84.2918 91.8213 84.3043 88.8977C84.2918 86.5137 84.9317 84.4246 86.2241 82.6303C87.5165 80.8361 89.3045 79.437 91.5881 78.4332C93.8717 77.4294 96.4753 76.9276 99.3988 76.9276C102.385 76.9276 104.976 77.4357 107.172 78.4521C109.38 79.4558 111.093 80.8674 112.31 82.6868C113.527 84.5062 114.148 86.6141 114.173 89.0107H105.252ZM119.406 116V77.4545H128.722V92.9254H143.911V77.4545H153.208V116H143.911V100.51H128.722V116H119.406ZM182.371 77.4545H191.669V102.317C191.669 105.19 190.985 107.694 189.617 109.827C188.25 111.947 186.343 113.591 183.896 114.758C181.449 115.912 178.607 116.489 175.37 116.489C172.095 116.489 169.234 115.912 166.787 114.758C164.341 113.591 162.44 111.947 161.085 109.827C159.73 107.694 159.052 105.19 159.052 102.317V77.4545H168.368V101.508C168.368 102.838 168.657 104.024 169.234 105.065C169.824 106.106 170.646 106.922 171.7 107.512C172.754 108.101 173.977 108.396 175.37 108.396C176.763 108.396 177.98 108.101 179.021 107.512C180.075 106.922 180.897 106.106 181.487 105.065C182.076 104.024 182.371 102.838 182.371 101.508V77.4545ZM206.824 77.4545V116H197.508V77.4545H206.824Z" fill="black"/>
<path d="M151.833 195.667L85.1667 235.667V195.667H58.5C47.8913 195.667 37.7172 191.452 30.2157 183.951C22.7143 176.449 18.5 166.275 18.5 155.667V49C18.5 38.3913 22.7143 28.2172 30.2157 20.7157C37.7172 13.2143 47.8913 9 58.5 9H218.5C229.109 9 239.283 13.2143 246.784 20.7157C254.286 28.2172 258.5 38.3913 258.5 49V109M271.833 249C271.833 241.928 269.024 235.145 264.023 230.144C259.022 225.143 252.239 222.333 245.167 222.333H218.5C211.428 222.333 204.645 225.143 199.644 230.144C194.643 235.145 191.833 241.928 191.833 249M205.167 182.333C205.167 189.406 207.976 196.189 212.977 201.189C217.978 206.19 224.761 209 231.833 209C238.906 209 245.689 206.19 250.689 201.189C255.69 196.189 258.5 189.406 258.5 182.333C258.5 175.261 255.69 168.478 250.689 163.477C245.689 158.476 238.906 155.667 231.833 155.667C224.761 155.667 217.978 158.476 212.977 163.477C207.976 168.478 205.167 175.261 205.167 182.333Z" stroke="black" stroke-width="17" stroke-linecap="round" stroke-linejoin="round"/>
<path d="M394.586 89.0107C394.46 87.6304 393.902 86.5576 392.911 85.7923C391.932 85.0143 390.533 84.6254 388.713 84.6254C387.509 84.6254 386.505 84.7822 385.702 85.0959C384.899 85.4096 384.297 85.8424 383.895 86.3945C383.494 86.9341 383.287 87.5552 383.274 88.2578C383.249 88.835 383.362 89.3432 383.613 89.7823C383.876 90.2215 384.253 90.6104 384.742 90.9492C385.244 91.2754 385.846 91.564 386.549 91.815C387.252 92.0659 388.042 92.2855 388.92 92.4737L392.233 93.2266C394.14 93.6406 395.822 94.1927 397.277 94.8828C398.745 95.5729 399.975 96.3948 400.966 97.3484C401.97 98.302 402.729 99.3999 403.243 100.642C403.758 101.884 404.021 103.277 404.034 104.82C404.021 107.254 403.406 109.344 402.189 111.088C400.972 112.832 399.222 114.168 396.938 115.097C394.667 116.025 391.926 116.489 388.713 116.489C385.489 116.489 382.678 116.006 380.282 115.04C377.885 114.074 376.022 112.606 374.692 110.636C373.362 108.666 372.678 106.175 372.64 103.164H381.561C381.637 104.406 381.969 105.441 382.559 106.27C383.149 107.098 383.958 107.725 384.987 108.152C386.028 108.578 387.233 108.792 388.601 108.792C389.855 108.792 390.922 108.622 391.8 108.283C392.691 107.945 393.375 107.474 393.852 106.872C394.328 106.27 394.573 105.579 394.586 104.801C394.573 104.074 394.347 103.453 393.908 102.938C393.469 102.411 392.791 101.96 391.875 101.583C390.972 101.194 389.818 100.837 388.412 100.51L384.385 99.5692C381.047 98.8039 378.418 97.5679 376.499 95.8615C374.579 94.1425 373.625 91.8213 373.638 88.8977C373.625 86.5137 374.265 84.4246 375.558 82.6303C376.85 80.8361 378.638 79.437 380.922 78.4332C383.205 77.4294 385.809 76.9276 388.732 76.9276C391.719 76.9276 394.31 77.4357 396.505 78.4521C398.714 79.4558 400.426 80.8674 401.644 82.6868C402.861 84.5062 403.482 86.6141 403.507 89.0107H394.586ZM408.739 116V77.4545H418.055V92.9254H433.244V77.4545H442.542V116H433.244V100.51H418.055V116H408.739ZM471.705 77.4545H481.002V102.317C481.002 105.19 480.319 107.694 478.951 109.827C477.583 111.947 475.676 113.591 473.229 114.758C470.783 115.912 467.941 116.489 464.703 116.489C461.428 116.489 458.568 115.912 456.121 114.758C453.674 113.591 451.773 111.947 450.418 109.827C449.063 107.694 448.386 105.19 448.386 102.317V77.4545H457.702V101.508C457.702 102.838 457.991 104.024 458.568 105.065C459.157 106.106 459.979 106.922 461.033 107.512C462.087 108.101 463.311 108.396 464.703 108.396C466.096 108.396 467.313 108.101 468.355 107.512C469.409 106.922 470.23 106.106 470.82 105.065C471.41 104.024 471.705 102.838 471.705 101.508V77.4545ZM496.158 77.4545V116H486.842V77.4545H496.158Z" fill="black"/>
<path d="M441.167 195.667L374.5 235.667V195.667H347.833C337.225 195.667 327.051 191.452 319.549 183.951C312.048 176.449 307.833 166.275 307.833 155.667V49C307.833 38.3913 312.048 28.2172 319.549 20.7157C327.051 13.2143 337.225 9 347.833 9H507.833C518.442 9 528.616 13.2143 536.118 20.7157C543.619 28.2172 547.833 38.3913 547.833 49V109M561.167 249C561.167 241.928 558.357 235.145 553.356 230.144C548.355 225.143 541.573 222.333 534.5 222.333H507.833C500.761 222.333 493.978 225.143 488.977 230.144C483.976 235.145 481.167 241.928 481.167 249M494.5 182.333C494.5 189.406 497.31 196.189 502.311 201.189C507.312 206.19 514.094 209 521.167 209C528.239 209 535.022 206.19 540.023 201.189C545.024 196.189 547.833 189.406 547.833 182.333C547.833 175.261 545.024 168.478 540.023 163.477C535.022 158.476 528.239 155.667 521.167 155.667C514.094 155.667 507.312 158.476 502.311 163.477C497.31 168.478 494.5 175.261 494.5 182.333Z" stroke="black" stroke-width="17" stroke-linecap="round" stroke-linejoin="round"/>
<path d="M249.919 368.011C249.793 366.63 249.235 365.558 248.244 364.792C247.265 364.014 245.866 363.625 244.046 363.625C242.842 363.625 241.838 363.782 241.035 364.096C240.232 364.41 239.63 364.842 239.228 365.395C238.827 365.934 238.62 366.555 238.607 367.258C238.582 367.835 238.695 368.343 238.946 368.782C239.209 369.221 239.586 369.61 240.075 369.949C240.577 370.275 241.179 370.564 241.882 370.815C242.585 371.066 243.375 371.286 244.254 371.474L247.566 372.227C249.473 372.641 251.155 373.193 252.61 373.883C254.078 374.573 255.308 375.395 256.299 376.348C257.303 377.302 258.062 378.4 258.576 379.642C259.091 380.884 259.354 382.277 259.367 383.82C259.354 386.254 258.739 388.344 257.522 390.088C256.305 391.832 254.555 393.168 252.271 394.097C250 395.025 247.259 395.489 244.046 395.489C240.822 395.489 238.011 395.006 235.615 394.04C233.218 393.074 231.355 391.606 230.025 389.636C228.695 387.666 228.011 385.175 227.973 382.164H236.894C236.97 383.406 237.302 384.441 237.892 385.27C238.482 386.098 239.291 386.725 240.32 387.152C241.361 387.578 242.566 387.792 243.934 387.792C245.188 387.792 246.255 387.622 247.133 387.283C248.024 386.945 248.708 386.474 249.185 385.872C249.661 385.27 249.906 384.579 249.919 383.801C249.906 383.074 249.68 382.453 249.241 381.938C248.802 381.411 248.124 380.96 247.208 380.583C246.305 380.194 245.151 379.837 243.745 379.51L239.718 378.569C236.38 377.804 233.751 376.568 231.832 374.862C229.912 373.143 228.958 370.821 228.971 367.898C228.958 365.514 229.598 363.425 230.891 361.63C232.183 359.836 233.971 358.437 236.255 357.433C238.538 356.429 241.142 355.928 244.065 355.928C247.052 355.928 249.643 356.436 251.838 357.452C254.047 358.456 255.759 359.867 256.977 361.687C258.194 363.506 258.815 365.614 258.84 368.011H249.919ZM264.072 395V356.455H273.388V371.925H288.577V356.455H297.875V395H288.577V379.51H273.388V395H264.072ZM327.038 356.455H336.335V381.317C336.335 384.19 335.652 386.694 334.284 388.827C332.916 390.947 331.009 392.591 328.562 393.758C326.116 394.912 323.274 395.489 320.036 395.489C316.761 395.489 313.901 394.912 311.454 393.758C309.007 392.591 307.106 390.947 305.751 388.827C304.396 386.694 303.719 384.19 303.719 381.317V356.455H313.035V380.508C313.035 381.838 313.324 383.024 313.901 384.065C314.49 385.106 315.312 385.922 316.366 386.512C317.42 387.101 318.644 387.396 320.036 387.396C321.429 387.396 322.646 387.101 323.688 386.512C324.742 385.922 325.563 385.106 326.153 384.065C326.743 383.024 327.038 381.838 327.038 380.508V356.455ZM351.491 356.455V395H342.175V356.455H351.491Z" fill="black"/>
<path d="M296.5 474.667L229.833 514.667V474.667H203.167C192.558 474.667 182.384 470.452 174.882 462.951C167.381 455.449 163.167 445.275 163.167 434.667V328C163.167 317.391 167.381 307.217 174.882 299.716C182.384 292.214 192.558 288 203.167 288H363.166C373.775 288 383.949 292.214 391.451 299.716C398.952 307.217 403.166 317.391 403.166 328V388M416.5 528C416.5 520.928 413.69 514.145 408.689 509.144C403.688 504.143 396.906 501.333 389.833 501.333H363.166C356.094 501.333 349.311 504.143 344.31 509.144C339.309 514.145 336.5 520.928 336.5 528M349.833 461.333C349.833 468.406 352.643 475.189 357.644 480.189C362.645 485.19 369.427 488 376.5 488C383.572 488 390.355 485.19 395.356 480.189C400.357 475.189 403.166 468.406 403.166 461.333C403.166 454.261 400.357 447.478 395.356 442.477C390.355 437.476 383.572 434.667 376.5 434.667C369.427 434.667 362.645 437.476 357.644 442.477C352.643 447.478 349.833 454.261 349.833 461.333Z" stroke="black" stroke-width="17" stroke-linecap="round" stroke-linejoin="round"/>
</svg>
