<svg width="279" height="266" viewBox="0 0 279 266" fill="none" xmlns="http://www.w3.org/2000/svg">
<path d="M99.7521 93.0107C99.6267 91.6304 99.0683 90.5576 98.0771 89.7923C97.0984 89.0143 95.6993 88.6254 93.88 88.6254C92.6754 88.6254 91.6716 88.7822 90.8686 89.0959C90.0656 89.4096 89.4633 89.8424 89.0618 90.3945C88.6603 90.9341 88.4532 91.5552 88.4407 92.2578C88.4156 92.835 88.5285 93.3432 88.7795 93.7823C89.043 94.2215 89.4194 94.6104 89.9087 94.9492C90.4106 95.2754 91.0129 95.564 91.7156 95.815C92.4182 96.0659 93.2087 96.2855 94.087 96.4737L97.3995 97.2266C99.3067 97.6406 100.988 98.1927 102.444 98.8828C103.912 99.5729 105.141 100.395 106.132 101.348C107.136 102.302 107.895 103.4 108.41 104.642C108.924 105.884 109.188 107.277 109.2 108.82C109.188 111.254 108.573 113.344 107.356 115.088C106.139 116.832 104.388 118.168 102.105 119.097C99.8337 120.025 97.0921 120.489 93.88 120.489C90.6553 120.489 87.8447 120.006 85.4482 119.04C83.0516 118.074 81.1883 116.606 79.8583 114.636C78.5283 112.666 77.8445 110.175 77.8068 107.164H86.728C86.8033 108.406 87.1358 109.441 87.7255 110.27C88.3152 111.098 89.1245 111.725 90.1534 112.152C91.1948 112.578 92.3994 112.792 93.767 112.792C95.0218 112.792 96.0883 112.622 96.9666 112.283C97.8575 111.945 98.5413 111.474 99.0181 110.872C99.4949 110.27 99.7396 109.579 99.7521 108.801C99.7396 108.074 99.5137 107.453 99.0746 106.938C98.6354 106.411 97.9579 105.96 97.0419 105.583C96.1385 105.194 94.9841 104.837 93.5788 104.51L89.5511 103.569C86.2135 102.804 83.5849 101.568 81.6651 99.8615C79.7454 98.1425 78.7918 95.8213 78.8043 92.8977C78.7918 90.5137 79.4317 88.4246 80.7241 86.6303C82.0165 84.8361 83.8045 83.437 86.0881 82.4332C88.3717 81.4294 90.9753 80.9276 93.8988 80.9276C96.8851 80.9276 99.4761 81.4357 101.672 82.4521C103.88 83.4558 105.593 84.8674 106.81 86.6868C108.027 88.5062 108.648 90.6141 108.673 93.0107H99.7521ZM113.906 120V81.4545H123.222V96.9254H138.411V81.4545H147.708V120H138.411V104.51H123.222V120H113.906ZM176.871 81.4545H186.169V106.317C186.169 109.19 185.485 111.694 184.117 113.827C182.75 115.947 180.843 117.591 178.396 118.758C175.949 119.912 173.107 120.489 169.87 120.489C166.595 120.489 163.734 119.912 161.287 118.758C158.841 117.591 156.94 115.947 155.585 113.827C154.23 111.694 153.552 109.19 153.552 106.317V81.4545H162.868V105.508C162.868 106.838 163.157 108.024 163.734 109.065C164.324 110.106 165.146 110.922 166.2 111.512C167.254 112.101 168.477 112.396 169.87 112.396C171.263 112.396 172.48 112.101 173.521 111.512C174.575 110.922 175.397 110.106 175.987 109.065C176.576 108.024 176.871 106.838 176.871 105.508V81.4545ZM201.324 81.4545V120H192.008V81.4545H201.324Z" fill="black"/>
<path d="M146.333 199.667L79.6667 239.667V199.667H53C42.3913 199.667 32.2172 195.452 24.7157 187.951C17.2143 180.449 13 170.275 13 159.667V53C13 42.3913 17.2143 32.2172 24.7157 24.7157C32.2172 17.2143 42.3913 13 53 13H213C223.609 13 233.783 17.2143 241.284 24.7157C248.786 32.2172 253 42.3913 253 53V113M266.333 253C266.333 245.928 263.524 239.145 258.523 234.144C253.522 229.143 246.739 226.333 239.667 226.333H213C205.928 226.333 199.145 229.143 194.144 234.144C189.143 239.145 186.333 245.928 186.333 253M199.667 186.333C199.667 193.406 202.476 200.189 207.477 205.189C212.478 210.19 219.261 213 226.333 213C233.406 213 240.189 210.19 245.189 205.189C250.19 200.189 253 193.406 253 186.333C253 179.261 250.19 172.478 245.189 167.477C240.189 162.476 233.406 159.667 226.333 159.667C219.261 159.667 212.478 162.476 207.477 167.477C202.476 172.478 199.667 179.261 199.667 186.333Z" stroke="black" stroke-width="25" stroke-linecap="round" stroke-linejoin="round"/>
</svg>
