<svg width="580" height="549" viewBox="0 0 580 549" fill="none" xmlns="http://www.w3.org/2000/svg">
<path d="M105.252 95.0107C105.127 93.6304 104.568 92.5576 103.577 91.7923C102.598 91.0143 101.199 90.6254 99.38 90.6254C98.1754 90.6254 97.1716 90.7822 96.3686 91.0959C95.5656 91.4096 94.9633 91.8424 94.5618 92.3945C94.1603 92.9341 93.9532 93.5552 93.9407 94.2578C93.9156 94.835 94.0285 95.3432 94.2795 95.7823C94.543 96.2215 94.9194 96.6104 95.4087 96.9492C95.9106 97.2754 96.5129 97.564 97.2156 97.815C97.9182 98.0659 98.7087 98.2855 99.587 98.4737L102.9 99.2266C104.807 99.6406 106.488 100.193 107.944 100.883C109.412 101.573 110.641 102.395 111.632 103.348C112.636 104.302 113.395 105.4 113.91 106.642C114.424 107.884 114.688 109.277 114.7 110.82C114.688 113.254 114.073 115.344 112.856 117.088C111.639 118.832 109.888 120.168 107.605 121.097C105.334 122.025 102.592 122.489 99.38 122.489C96.1553 122.489 93.3447 122.006 90.9482 121.04C88.5516 120.074 86.6883 118.606 85.3583 116.636C84.0283 114.666 83.3445 112.175 83.3068 109.164H92.228C92.3033 110.406 92.6358 111.441 93.2255 112.27C93.8152 113.098 94.6245 113.725 95.6534 114.152C96.6948 114.578 97.8994 114.792 99.267 114.792C100.522 114.792 101.588 114.622 102.467 114.283C103.357 113.945 104.041 113.474 104.518 112.872C104.995 112.27 105.24 111.579 105.252 110.801C105.24 110.074 105.014 109.453 104.575 108.938C104.135 108.411 103.458 107.96 102.542 107.583C101.638 107.194 100.484 106.837 99.0788 106.51L95.0511 105.569C91.7135 104.804 89.0849 103.568 87.1651 101.862C85.2454 100.143 84.2918 97.8213 84.3043 94.8977C84.2918 92.5137 84.9317 90.4246 86.2241 88.6303C87.5165 86.8361 89.3045 85.437 91.5881 84.4332C93.8717 83.4294 96.4753 82.9276 99.3988 82.9276C102.385 82.9276 104.976 83.4357 107.172 84.4521C109.38 85.4558 111.093 86.8674 112.31 88.6868C113.527 90.5062 114.148 92.6141 114.173 95.0107H105.252ZM119.406 122V83.4545H128.722V98.9254H143.911V83.4545H153.208V122H143.911V106.51H128.722V122H119.406ZM182.371 83.4545H191.669V108.317C191.669 111.19 190.985 113.694 189.617 115.827C188.25 117.947 186.343 119.591 183.896 120.758C181.449 121.912 178.607 122.489 175.37 122.489C172.095 122.489 169.234 121.912 166.787 120.758C164.341 119.591 162.44 117.947 161.085 115.827C159.73 113.694 159.052 111.19 159.052 108.317V83.4545H168.368V107.508C168.368 108.838 168.657 110.024 169.234 111.065C169.824 112.106 170.646 112.922 171.7 113.512C172.754 114.101 173.977 114.396 175.37 114.396C176.763 114.396 177.98 114.101 179.021 113.512C180.075 112.922 180.897 112.106 181.487 111.065C182.076 110.024 182.371 108.838 182.371 107.508V83.4545ZM206.824 83.4545V122H197.508V83.4545H206.824Z" fill="black"/>
<path d="M151.833 201.667L85.1667 241.667V201.667H58.5C47.8913 201.667 37.7172 197.452 30.2157 189.951C22.7143 182.449 18.5 172.275 18.5 161.667V55C18.5 44.3913 22.7143 34.2172 30.2157 26.7157C37.7172 19.2143 47.8913 15 58.5 15H218.5C229.109 15 239.283 19.2143 246.784 26.7157C254.286 34.2172 258.5 44.3913 258.5 55V115M271.833 255C271.833 247.928 269.024 241.145 264.023 236.144C259.022 231.143 252.239 228.333 245.167 228.333H218.5C211.428 228.333 204.645 231.143 199.644 236.144C194.643 241.145 191.833 247.928 191.833 255M205.167 188.333C205.167 195.406 207.976 202.189 212.977 207.189C217.978 212.19 224.761 215 231.833 215C238.906 215 245.689 212.19 250.689 207.189C255.69 202.189 258.5 195.406 258.5 188.333C258.5 181.261 255.69 174.478 250.689 169.477C245.689 164.476 238.906 161.667 231.833 161.667C224.761 161.667 217.978 164.476 212.977 169.477C207.976 174.478 205.167 181.261 205.167 188.333Z" stroke="black" stroke-width="30" stroke-linecap="round" stroke-linejoin="round"/>
<path d="M394.586 95.0107C394.46 93.6304 393.902 92.5576 392.911 91.7923C391.932 91.0143 390.533 90.6254 388.713 90.6254C387.509 90.6254 386.505 90.7822 385.702 91.0959C384.899 91.4096 384.297 91.8424 383.895 92.3945C383.494 92.9341 383.287 93.5552 383.274 94.2578C383.249 94.835 383.362 95.3432 383.613 95.7823C383.876 96.2215 384.253 96.6104 384.742 96.9492C385.244 97.2754 385.846 97.564 386.549 97.815C387.252 98.0659 388.042 98.2855 388.92 98.4737L392.233 99.2266C394.14 99.6406 395.822 100.193 397.277 100.883C398.745 101.573 399.975 102.395 400.966 103.348C401.97 104.302 402.729 105.4 403.243 106.642C403.758 107.884 404.021 109.277 404.034 110.82C404.021 113.254 403.406 115.344 402.189 117.088C400.972 118.832 399.222 120.168 396.938 121.097C394.667 122.025 391.926 122.489 388.713 122.489C385.489 122.489 382.678 122.006 380.282 121.04C377.885 120.074 376.022 118.606 374.692 116.636C373.362 114.666 372.678 112.175 372.64 109.164H381.561C381.637 110.406 381.969 111.441 382.559 112.27C383.149 113.098 383.958 113.725 384.987 114.152C386.028 114.578 387.233 114.792 388.601 114.792C389.855 114.792 390.922 114.622 391.8 114.283C392.691 113.945 393.375 113.474 393.852 112.872C394.328 112.27 394.573 111.579 394.586 110.801C394.573 110.074 394.347 109.453 393.908 108.938C393.469 108.411 392.791 107.96 391.875 107.583C390.972 107.194 389.818 106.837 388.412 106.51L384.385 105.569C381.047 104.804 378.418 103.568 376.499 101.862C374.579 100.143 373.625 97.8213 373.638 94.8977C373.625 92.5137 374.265 90.4246 375.558 88.6303C376.85 86.8361 378.638 85.437 380.922 84.4332C383.205 83.4294 385.809 82.9276 388.732 82.9276C391.719 82.9276 394.31 83.4357 396.505 84.4521C398.714 85.4558 400.426 86.8674 401.644 88.6868C402.861 90.5062 403.482 92.6141 403.507 95.0107H394.586ZM408.739 122V83.4545H418.055V98.9254H433.244V83.4545H442.542V122H433.244V106.51H418.055V122H408.739ZM471.705 83.4545H481.002V108.317C481.002 111.19 480.319 113.694 478.951 115.827C477.583 117.947 475.676 119.591 473.229 120.758C470.783 121.912 467.941 122.489 464.703 122.489C461.428 122.489 458.568 121.912 456.121 120.758C453.674 119.591 451.773 117.947 450.418 115.827C449.063 113.694 448.386 111.19 448.386 108.317V83.4545H457.702V107.508C457.702 108.838 457.991 110.024 458.568 111.065C459.157 112.106 459.979 112.922 461.033 113.512C462.087 114.101 463.311 114.396 464.703 114.396C466.096 114.396 467.313 114.101 468.355 113.512C469.409 112.922 470.23 112.106 470.82 111.065C471.41 110.024 471.705 108.838 471.705 107.508V83.4545ZM496.158 83.4545V122H486.842V83.4545H496.158Z" fill="black"/>
<path d="M441.167 201.667L374.5 241.667V201.667H347.833C337.225 201.667 327.051 197.452 319.549 189.951C312.048 182.449 307.833 172.275 307.833 161.667V55C307.833 44.3913 312.048 34.2172 319.549 26.7157C327.051 19.2143 337.225 15 347.833 15H507.833C518.442 15 528.616 19.2143 536.118 26.7157C543.619 34.2172 547.833 44.3913 547.833 55V115M561.167 255C561.167 247.928 558.357 241.145 553.356 236.144C548.355 231.143 541.573 228.333 534.5 228.333H507.833C500.761 228.333 493.978 231.143 488.977 236.144C483.976 241.145 481.167 247.928 481.167 255M494.5 188.333C494.5 195.406 497.31 202.189 502.311 207.189C507.312 212.19 514.094 215 521.167 215C528.239 215 535.022 212.19 540.023 207.189C545.024 202.189 547.833 195.406 547.833 188.333C547.833 181.261 545.024 174.478 540.023 169.477C535.022 164.476 528.239 161.667 521.167 161.667C514.094 161.667 507.312 164.476 502.311 169.477C497.31 174.478 494.5 181.261 494.5 188.333Z" stroke="black" stroke-width="30" stroke-linecap="round" stroke-linejoin="round"/>
<path d="M249.919 374.011C249.793 372.63 249.235 371.558 248.244 370.792C247.265 370.014 245.866 369.625 244.046 369.625C242.842 369.625 241.838 369.782 241.035 370.096C240.232 370.41 239.63 370.842 239.228 371.395C238.827 371.934 238.62 372.555 238.607 373.258C238.582 373.835 238.695 374.343 238.946 374.782C239.209 375.221 239.586 375.61 240.075 375.949C240.577 376.275 241.179 376.564 241.882 376.815C242.585 377.066 243.375 377.286 244.254 377.474L247.566 378.227C249.473 378.641 251.155 379.193 252.61 379.883C254.078 380.573 255.308 381.395 256.299 382.348C257.303 383.302 258.062 384.4 258.576 385.642C259.091 386.884 259.354 388.277 259.367 389.82C259.354 392.254 258.739 394.344 257.522 396.088C256.305 397.832 254.555 399.168 252.271 400.097C250 401.025 247.259 401.489 244.046 401.489C240.822 401.489 238.011 401.006 235.615 400.04C233.218 399.074 231.355 397.606 230.025 395.636C228.695 393.666 228.011 391.175 227.973 388.164H236.894C236.97 389.406 237.302 390.441 237.892 391.27C238.482 392.098 239.291 392.725 240.32 393.152C241.361 393.578 242.566 393.792 243.934 393.792C245.188 393.792 246.255 393.622 247.133 393.283C248.024 392.945 248.708 392.474 249.185 391.872C249.661 391.27 249.906 390.579 249.919 389.801C249.906 389.074 249.68 388.453 249.241 387.938C248.802 387.411 248.124 386.96 247.208 386.583C246.305 386.194 245.151 385.837 243.745 385.51L239.718 384.569C236.38 383.804 233.751 382.568 231.832 380.862C229.912 379.143 228.958 376.821 228.971 373.898C228.958 371.514 229.598 369.425 230.891 367.63C232.183 365.836 233.971 364.437 236.255 363.433C238.538 362.429 241.142 361.928 244.065 361.928C247.052 361.928 249.643 362.436 251.838 363.452C254.047 364.456 255.759 365.867 256.977 367.687C258.194 369.506 258.815 371.614 258.84 374.011H249.919ZM264.072 401V362.455H273.388V377.925H288.577V362.455H297.875V401H288.577V385.51H273.388V401H264.072ZM327.038 362.455H336.335V387.317C336.335 390.19 335.652 392.694 334.284 394.827C332.916 396.947 331.009 398.591 328.562 399.758C326.116 400.912 323.274 401.489 320.036 401.489C316.761 401.489 313.901 400.912 311.454 399.758C309.007 398.591 307.106 396.947 305.751 394.827C304.396 392.694 303.719 390.19 303.719 387.317V362.455H313.035V386.508C313.035 387.838 313.324 389.024 313.901 390.065C314.49 391.106 315.312 391.922 316.366 392.512C317.42 393.101 318.644 393.396 320.036 393.396C321.429 393.396 322.646 393.101 323.688 392.512C324.742 391.922 325.563 391.106 326.153 390.065C326.743 389.024 327.038 387.838 327.038 386.508V362.455ZM351.491 362.455V401H342.175V362.455H351.491Z" fill="black"/>
<path d="M296.5 480.667L229.833 520.667V480.667H203.167C192.558 480.667 182.384 476.452 174.882 468.951C167.381 461.449 163.167 451.275 163.167 440.667V334C163.167 323.391 167.381 313.217 174.882 305.716C182.384 298.214 192.558 294 203.167 294H363.166C373.775 294 383.949 298.214 391.451 305.716C398.952 313.217 403.166 323.391 403.166 334V394M416.5 534C416.5 526.928 413.69 520.145 408.689 515.144C403.688 510.143 396.906 507.333 389.833 507.333H363.166C356.094 507.333 349.311 510.143 344.31 515.144C339.309 520.145 336.5 526.928 336.5 534M349.833 467.333C349.833 474.406 352.643 481.189 357.644 486.189C362.645 491.19 369.427 494 376.5 494C383.572 494 390.355 491.19 395.356 486.189C400.357 481.189 403.166 474.406 403.166 467.333C403.166 460.261 400.357 453.478 395.356 448.477C390.355 443.476 383.572 440.667 376.5 440.667C369.427 440.667 362.645 443.476 357.644 448.477C352.643 453.478 349.833 460.261 349.833 467.333Z" stroke="black" stroke-width="30" stroke-linecap="round" stroke-linejoin="round"/>
</svg>
