<svg width="254" height="240" viewBox="0 0 254 240" fill="none" xmlns="http://www.w3.org/2000/svg">
<g id="SHUI logo white">
<path id="Vector" d="M133.333 186.667L66.6667 226.667V186.667H40C29.3913 186.667 19.2172 182.452 11.7157 174.951C4.21427 167.449 0 157.275 0 146.667V40C0 29.3913 4.21427 19.2172 11.7157 11.7157C19.2172 4.21427 29.3913 0 40 0H200C210.609 0 220.783 4.21427 228.284 11.7157C235.786 19.2172 240 29.3913 240 40V100M253.333 240C253.333 232.928 250.524 226.145 245.523 221.144C240.522 216.143 233.739 213.333 226.667 213.333H200C192.928 213.333 186.145 216.143 181.144 221.144C176.143 226.145 173.333 232.928 173.333 240M186.667 173.333C186.667 180.406 189.476 187.189 194.477 192.189C199.478 197.19 206.261 200 213.333 200C220.406 200 227.189 197.19 232.189 192.189C237.19 187.189 240 180.406 240 173.333C240 166.261 237.19 159.478 232.189 154.477C227.189 149.476 220.406 146.667 213.333 146.667C206.261 146.667 199.478 149.476 194.477 154.477C189.476 159.478 186.667 166.261 186.667 173.333Z" stroke="white" stroke-width="17" stroke-linecap="round" stroke-linejoin="round"/>
</g>
</svg>
