<svg width="254" height="240" viewBox="0 0 254 240" fill="none" xmlns="http://www.w3.org/2000/svg">
<g id="SHUI logo white">
<path id="SHUI" d="M86.7521 80.0107C86.6267 78.6304 86.0683 77.5576 85.0771 76.7923C84.0984 76.0143 82.6993 75.6254 80.88 75.6254C79.6754 75.6254 78.6716 75.7822 77.8686 76.0959C77.0656 76.4096 76.4633 76.8424 76.0618 77.3945C75.6603 77.9341 75.4532 78.5552 75.4407 79.2578C75.4156 79.835 75.5285 80.3432 75.7795 80.7823C76.043 81.2215 76.4194 81.6104 76.9087 81.9492C77.4106 82.2754 78.0129 82.564 78.7156 82.815C79.4182 83.0659 80.2087 83.2855 81.087 83.4737L84.3995 84.2266C86.3067 84.6406 87.988 85.1927 89.4435 85.8828C90.9116 86.5729 92.1412 87.3948 93.1325 88.3484C94.1362 89.302 94.8954 90.3999 95.4098 91.642C95.9242 92.8842 96.1877 94.277 96.2003 95.8203C96.1877 98.2545 95.5729 100.344 94.3558 102.088C93.1387 103.832 91.3884 105.168 89.1048 106.097C86.8337 107.025 84.0921 107.489 80.88 107.489C77.6553 107.489 74.8447 107.006 72.4482 106.04C70.0516 105.074 68.1883 103.606 66.8583 101.636C65.5283 99.6661 64.8445 97.1754 64.8068 94.1641H73.728C73.8033 95.4062 74.1358 96.4414 74.7255 97.2695C75.3152 98.0977 76.1245 98.725 77.1534 99.1516C78.1948 99.5782 79.3994 99.7915 80.767 99.7915C82.0218 99.7915 83.0883 99.6222 83.9666 99.2834C84.8575 98.9446 85.5413 98.4741 86.0181 97.8718C86.4949 97.2695 86.7396 96.5794 86.7521 95.8015C86.7396 95.0737 86.5137 94.4527 86.0746 93.9382C85.6354 93.4112 84.9579 92.9595 84.0419 92.5831C83.1385 92.1941 81.9841 91.8365 80.5788 91.5103L76.5511 90.5692C73.2135 89.8039 70.5849 88.5679 68.6651 86.8615C66.7454 85.1425 65.7918 82.8213 65.8043 79.8977C65.7918 77.5137 66.4317 75.4246 67.7241 73.6303C69.0165 71.8361 70.8045 70.437 73.0881 69.4332C75.3717 68.4294 77.9753 67.9276 80.8988 67.9276C83.8851 67.9276 86.4761 68.4357 88.6719 69.4521C90.8802 70.4558 92.5929 71.8674 93.81 73.6868C95.0271 75.5062 95.6482 77.6141 95.6733 80.0107H86.7521ZM100.906 107V68.4545H110.222V83.9254H125.411V68.4545H134.708V107H125.411V91.5103H110.222V107H100.906ZM163.871 68.4545H173.169V93.3171C173.169 96.1905 172.485 98.6937 171.117 100.827C169.75 102.947 167.843 104.591 165.396 105.758C162.949 106.912 160.107 107.489 156.87 107.489C153.595 107.489 150.734 106.912 148.287 105.758C145.841 104.591 143.94 102.947 142.585 100.827C141.23 98.6937 140.552 96.1905 140.552 93.3171V68.4545H149.868V92.5078C149.868 93.8378 150.157 95.0236 150.734 96.065C151.324 97.1064 152.146 97.922 153.2 98.5117C154.254 99.1014 155.477 99.3963 156.87 99.3963C158.263 99.3963 159.48 99.1014 160.521 98.5117C161.575 97.922 162.397 97.1064 162.987 96.065C163.576 95.0236 163.871 93.8378 163.871 92.5078V68.4545ZM188.324 68.4545V107H179.008V68.4545H188.324Z" fill="white"/>
<path id="Vector" d="M133.333 186.667L66.6667 226.667V186.667H40C29.3913 186.667 19.2172 182.452 11.7157 174.951C4.21427 167.449 0 157.275 0 146.667V40C0 29.3913 4.21427 19.2172 11.7157 11.7157C19.2172 4.21427 29.3913 0 40 0H200C210.609 0 220.783 4.21427 228.284 11.7157C235.786 19.2172 240 29.3913 240 40V100M253.333 240C253.333 232.928 250.524 226.145 245.523 221.144C240.522 216.143 233.739 213.333 226.667 213.333H200C192.928 213.333 186.145 216.143 181.144 221.144C176.143 226.145 173.333 232.928 173.333 240M186.667 173.333C186.667 180.406 189.476 187.189 194.477 192.189C199.478 197.19 206.261 200 213.333 200C220.406 200 227.189 197.19 232.189 192.189C237.19 187.189 240 180.406 240 173.333C240 166.261 237.19 159.478 232.189 154.477C227.189 149.476 220.406 146.667 213.333 146.667C206.261 146.667 199.478 149.476 194.477 154.477C189.476 159.478 186.667 166.261 186.667 173.333Z" stroke="white" stroke-width="17" stroke-linecap="round" stroke-linejoin="round"/>
</g>
</svg>
